<?xml version="1.0" standalone="no"?>
<!DOCTYPE svg PUBLIC "-//W3C//DTD SVG 20010904//EN"
 "http://www.w3.org/TR/2001/REC-SVG-20010904/DTD/svg10.dtd">
<svg version="1.0" xmlns="http://www.w3.org/2000/svg"
 width="2048.000000pt" height="2048.000000pt" viewBox="0 0 2048.000000 2048.000000"
 preserveAspectRatio="xMidYMid meet">

<g transform="translate(0.000000,2048.000000) scale(0.100000,-0.100000)"
fill="#000000" stroke="none">
<path d="M17010 16190 c-105 -11 -192 -35 -285 -80 -238 -115 -397 -320 -451
-583 -23 -113 -15 -341 15 -445 125 -429 532 -664 1016 -587 119 19 154 29
255 78 114 55 229 167 282 277 55 111 69 182 75 373 l6 167 -407 0 -406 0 0
-140 0 -140 188 -1 c103 -1 190 -1 194 -1 20 3 25 -26 11 -68 -43 -127 -150
-188 -343 -197 -100 -5 -123 -2 -178 16 -202 69 -312 240 -312 483 0 149 44
271 131 363 89 94 218 142 354 132 138 -10 238 -67 306 -173 36 -55 45 -63 63
-57 12 4 95 28 186 53 153 43 165 48 163 69 -5 37 -39 104 -87 168 -123 163
-324 269 -557 293 -109 11 -108 11 -219 0z"/>
<path d="M5506 16108 c-13 -29 -38 -83 -55 -120 -17 -37 -41 -93 -55 -125 -13
-32 -38 -87 -54 -123 -35 -76 -107 -237 -265 -595 -63 -143 -127 -286 -141
-317 -59 -130 -74 -166 -96 -218 -13 -30 -27 -59 -32 -65 -4 -5 -8 -13 -8 -17
0 -4 94 -8 210 -8 l210 0 20 43 c11 23 37 87 59 142 l39 100 378 0 378 0 59
-142 60 -143 209 0 c128 0 208 4 208 10 0 8 -51 126 -145 335 -8 17 -71 158
-140 315 -70 157 -138 310 -152 340 -14 30 -59 132 -100 225 -73 165 -105 236
-160 358 l-27 57 -188 0 -189 0 -23 -52z m304 -610 c46 -112 89 -216 96 -233
21 -49 44 -107 44 -111 0 -2 -103 -4 -230 -4 -126 0 -230 4 -230 9 0 4 14 41
31 82 17 41 59 144 94 229 92 226 94 230 104 230 4 0 46 -91 91 -202z"/>
<path d="M12349 16093 c-17 -38 -55 -122 -84 -188 -42 -97 -236 -535 -315
-710 -10 -22 -57 -128 -105 -235 -48 -107 -95 -213 -105 -235 -10 -22 -32 -71
-49 -109 -17 -38 -31 -75 -31 -83 0 -11 36 -13 208 -11 l207 3 59 143 59 142
375 -2 376 -3 59 -142 60 -143 209 0 c121 0 208 4 208 9 0 9 -128 303 -187
431 -14 30 -81 181 -150 335 -69 154 -133 298 -143 320 -10 22 -64 144 -120
270 -56 127 -108 240 -116 253 -14 22 -19 22 -200 22 l-185 0 -30 -67z m291
-545 c34 -84 84 -206 111 -270 27 -65 49 -120 49 -123 0 -3 -103 -5 -230 -5
-160 0 -230 3 -230 11 0 6 7 25 15 42 8 18 29 70 48 117 76 190 159 380 166
380 4 0 36 -69 71 -152z"/>
<path d="M2587 16073 c19 -43 76 -168 125 -278 177 -392 226 -501 251 -555 14
-30 60 -131 102 -225 79 -177 95 -211 173 -385 l48 -105 208 0 209 0 66 145
c36 80 78 172 93 205 14 33 48 110 76 170 47 103 179 396 280 620 24 55 82
182 128 283 46 100 84 187 84 193 0 6 -81 8 -222 7 l-223 -3 -32 -75 c-18 -41
-41 -95 -52 -120 -10 -25 -61 -142 -111 -260 -51 -118 -103 -237 -115 -265
-13 -27 -37 -84 -54 -125 -18 -41 -43 -100 -56 -130 -13 -30 -33 -77 -45 -104
-12 -30 -24 -46 -30 -40 -4 5 -44 92 -88 194 -44 102 -137 318 -207 480 -70
162 -142 329 -160 370 l-32 75 -226 3 -226 2 36 -77z"/>
<path d="M7352 15338 l3 -813 203 -3 202 -2 0 515 c0 283 4 515 9 515 4 0 39
-45 77 -100 38 -55 113 -164 168 -242 54 -79 131 -190 171 -248 39 -58 120
-175 180 -260 59 -85 110 -161 112 -167 4 -10 58 -13 224 -13 l219 0 0 815 0
815 -205 0 -205 0 0 -510 c0 -311 -4 -510 -9 -510 -9 0 -82 102 -221 305 -71
103 -157 228 -192 277 -18 26 -94 135 -167 242 l-135 196 -218 0 -218 0 2
-812z"/>
<path d="M9870 15335 l0 -815 572 2 572 3 78 175 c43 96 78 176 78 177 0 2
-199 4 -442 5 l-443 3 -3 633 -2 632 -205 0 -205 0 0 -815z"/>
<path d="M14095 16138 c-3 -7 -4 -373 -3 -813 l3 -800 205 0 205 0 2 507 c0
280 5 509 10 510 4 1 56 -68 115 -153 58 -85 166 -239 238 -344 72 -104 183
-265 247 -357 l117 -168 213 0 213 0 0 815 0 815 -205 0 -205 0 -2 -517 -3
-518 -122 175 c-67 96 -140 202 -163 235 -59 86 -189 275 -319 463 l-112 162
-215 0 c-162 0 -216 -3 -219 -12z"/>
<path d="M12005 13781 c-76 -22 -112 -41 -153 -82 -53 -52 -66 -86 -67 -164 0
-60 4 -76 28 -110 29 -43 104 -94 176 -120 24 -8 95 -28 158 -45 168 -44 213
-72 213 -133 0 -82 -132 -124 -272 -86 -48 12 -103 60 -129 111 -11 21 -21 38
-23 38 -3 0 -31 -6 -63 -14 -32 -8 -70 -17 -85 -20 -35 -8 -35 -23 -2 -89 76
-149 267 -228 480 -198 189 26 288 116 289 262 0 56 -4 73 -30 114 -52 84
-134 128 -349 186 -142 38 -192 62 -200 95 -15 60 56 107 160 106 76 -1 144
-31 176 -78 13 -18 30 -34 38 -34 35 -1 163 35 167 47 12 32 -89 143 -166 182
-97 50 -239 63 -346 32z"/>
<path d="M4800 13467 c0 -340 5 -380 57 -458 73 -110 249 -166 436 -139 147
21 234 78 286 189 l26 56 3 333 3 332 -95 0 -95 0 -3 -307 c-3 -339 -7 -359
-69 -404 -68 -48 -228 -45 -294 6 -59 45 -65 81 -65 412 l0 293 -95 0 -95 0 0
-313z"/>
<path d="M6100 13330 l0 -450 95 0 95 0 0 306 c0 240 3 305 13 302 6 -2 39
-44 72 -93 33 -50 124 -186 203 -302 l143 -213 105 0 104 0 0 450 0 450 -95 0
-95 0 0 -300 c0 -234 -3 -300 -13 -300 -6 0 -30 28 -52 63 -22 34 -112 169
-200 299 l-160 237 -107 1 -108 0 0 -450z"/>
<path d="M7420 13330 l0 -450 95 0 95 0 0 450 0 450 -95 0 -95 0 0 -450z"/>
<path d="M7990 13771 c0 -5 21 -53 46 -107 44 -94 82 -177 187 -409 24 -55 60
-134 79 -175 19 -41 47 -103 63 -137 l28 -63 99 0 c93 0 99 1 107 23 5 12 49
110 99 217 97 211 103 226 212 465 40 88 76 164 81 169 20 22 4 26 -101 26
l-110 0 -21 -47 c-12 -27 -73 -165 -136 -308 -63 -143 -120 -266 -127 -273
-10 -10 -28 24 -96 180 -46 106 -96 220 -111 253 -15 33 -41 90 -57 128 l-31
67 -105 0 c-58 0 -106 -4 -106 -9z"/>
<path d="M9370 13330 l0 -450 335 0 335 0 0 85 0 85 -237 2 -238 3 0 100 0
100 218 3 218 2 -3 78 -3 77 -210 2 c-115 2 -214 3 -218 3 -4 0 -6 42 -5 93
l3 92 238 3 237 2 0 85 0 85 -335 0 -335 0 0 -450z"/>
<path d="M10530 13330 l0 -450 95 0 95 0 0 159 c0 182 -6 171 96 171 77 0 65
11 188 -181 l91 -144 108 -3 c59 -1 107 0 107 4 0 4 -45 75 -100 159 -55 83
-100 156 -100 162 0 6 21 19 48 30 110 46 162 127 162 255 0 137 -61 226 -185
266 -60 20 -86 22 -335 22 l-270 0 0 -450z m545 265 c38 -19 55 -51 55 -104 0
-49 -30 -87 -78 -101 -21 -7 -98 -10 -182 -8 l-145 3 0 95 c-1 143 -17 130
162 130 119 0 163 -4 188 -15z"/>
<path d="M12985 13757 c-4 -12 -5 -214 -3 -447 l3 -425 98 -3 97 -3 0 451 0
450 -95 0 c-90 0 -95 -1 -100 -23z"/>
<path d="M13610 13695 l0 -84 158 -3 157 -3 3 -362 2 -363 95 0 95 0 0 365 0
365 160 0 160 0 0 85 0 85 -415 0 -415 0 0 -85z"/>
<path d="M14730 13774 c0 -3 39 -63 87 -132 162 -238 217 -317 245 -356 l28
-39 0 -184 0 -183 100 0 100 0 0 180 0 181 60 87 c34 48 110 159 171 247 61
88 117 167 125 176 8 8 14 19 14 23 0 3 -50 5 -111 4 l-111 -3 -117 -180 c-64
-99 -122 -180 -128 -180 -10 0 -169 233 -228 333 l-19 32 -108 0 c-59 0 -108
-3 -108 -6z"/>
<path d="M7020 10686 c0 -509 2 -564 16 -570 9 -3 1478 -6 3265 -6 l3249 0 0
570 0 571 -1352 -3 c-1342 -3 -1354 -4 -1418 -24 -242 -78 -407 -251 -475
-497 -9 -32 -19 -55 -24 -53 -5 3 -11 27 -15 53 -10 76 -85 219 -156 296 -89
97 -179 154 -314 201 -60 20 -76 20 -1418 24 l-1358 3 0 -565z"/>
<path d="M7020 8178 c0 -904 4 -1514 10 -1597 21 -277 77 -543 169 -812 253
-739 796 -1377 1497 -1759 639 -348 1375 -473 2109 -359 144 22 170 28 330 71
416 112 788 297 1135 564 52 40 107 83 121 96 356 314 614 642 807 1028 164
325 262 634 324 1015 l23 140 3 1538 3 1537 -3266 0 -3265 0 0 -1462z m637
430 c87 -50 210 -122 273 -158 63 -37 203 -118 310 -180 284 -163 295 -170
310 -194 20 -30 230 -395 457 -791 187 -326 267 -463 413 -715 37 -63 78 -135
92 -160 29 -51 164 -286 189 -328 9 -15 43 -74 76 -132 33 -58 113 -197 178
-310 160 -277 161 -278 154 -284 -7 -8 -165 82 -244 139 -118 85 -148 124
-315 415 -80 139 -204 352 -284 490 -35 60 -45 69 -133 120 -122 70 -162 97
-209 140 -86 78 -86 78 -441 697 l-128 222 -120 68 c-93 53 -138 87 -205 153
-79 78 -97 104 -212 305 -69 121 -174 303 -232 404 -58 101 -106 185 -106 187
0 12 34 -5 177 -88z m5433 88 c0 -4 -440 -262 -555 -326 -22 -12 -92 -53 -155
-90 -63 -37 -131 -77 -150 -87 -19 -11 -120 -70 -225 -130 -104 -60 -266 -154
-360 -208 -275 -159 -309 -193 -469 -469 -57 -100 -144 -251 -193 -336 -50
-85 -131 -227 -181 -315 -51 -88 -96 -167 -102 -175 -5 -8 -24 -42 -43 -75
-35 -62 -163 -284 -213 -369 -16 -27 -34 -49 -39 -50 -11 -1 -234 381 -235
401 0 11 178 329 200 358 4 6 28 46 52 90 25 44 80 141 123 215 68 117 186
322 247 429 10 18 18 35 16 37 -2 1 -39 -15 -83 -36 -98 -48 -300 -143 -375
-177 -30 -13 -65 -29 -77 -35 -13 -6 -25 -9 -27 -7 -3 2 -41 67 -86 143 -60
104 -77 142 -68 148 7 4 42 17 78 29 108 36 104 30 64 101 -19 34 -31 64 -27
68 4 4 44 17 88 30 44 12 84 25 88 27 4 3 -6 28 -23 57 -16 30 -30 58 -30 63
0 5 51 21 113 37 61 15 137 34 167 41 30 8 82 21 115 29 63 15 1996 501 2030
510 11 3 67 17 125 32 58 14 119 29 135 34 33 9 75 12 75 6z m-4077 -872 c399
-230 408 -239 574 -529 77 -134 172 -299 366 -635 140 -242 398 -691 422 -735
13 -22 27 -39 31 -38 4 0 77 122 161 270 289 503 407 708 496 863 49 85 98
171 109 190 11 19 50 86 86 150 36 63 79 135 95 159 55 81 146 160 267 231
174 103 175 103 107 -12 -24 -40 -90 -154 -147 -253 -56 -99 -125 -218 -153
-265 -28 -47 -64 -110 -80 -140 -17 -30 -48 -84 -69 -119 -21 -34 -38 -64 -38
-66 0 -2 -23 -43 -52 -92 -49 -84 -92 -160 -153 -268 -15 -27 -31 -54 -35 -60
-4 -5 -123 -212 -265 -460 -298 -521 -434 -753 -445 -760 -7 -4 -101 154 -403
680 -44 77 -110 192 -147 255 -36 63 -103 178 -147 255 -222 387 -320 557
-360 623 -23 40 -43 75 -43 78 0 2 -11 21 -24 42 -13 20 -70 118 -126 217 -57
99 -152 264 -212 367 -124 214 -129 224 -104 215 9 -4 140 -77 289 -163z"/>
</g>
</svg>
